<?xml version="1.0" encoding="utf-8"?>
<!-- Generator: Adobe Illustrator 18.0.0, SVG Export Plug-In . SVG Version: 6.00 Build 0)  -->
<!DOCTYPE svg PUBLIC "-//W3C//DTD SVG 1.1//EN" "http://www.w3.org/Graphics/SVG/1.1/DTD/svg11.dtd">
<svg version="1.1" id="Layer_1" xmlns="http://www.w3.org/2000/svg" xmlns:xlink="http://www.w3.org/1999/xlink" x="0px" y="0px"
	 viewBox="0 0 198.3 69.7" enable-background="new 0 0 198.3 69.7" xml:space="preserve">
<g>
	<path fill="#046736" d="M192,0l-4.4,0L6.3,0.2L0,0.2l0,6.2c0,0,0,0,0,0l0,35.6c0,3.4,2.8,6.2,6.3,6.2h2.1L192,48l6.2,0l0-6.2
		l0-29.7l0-5.8C198.2,2.8,195.4,0,192,0"/>
	<path fill="#FFFFFF" d="M18.6,16.1c1.5,0,2.4-0.3,3-0.9c0.5-0.6,0.7-1.7,0.7-3.5c0-1.8-0.2-2.9-0.7-3.5c-0.5-0.6-1.5-0.9-2.9-0.9
		c-1.5,0-2.4,0.3-3,0.9c-0.5,0.6-0.7,1.7-0.7,3.5c0,1.8,0.2,2.9,0.7,3.5C16.2,15.8,17.1,16.1,18.6,16.1 M16.8,9.1
		c0.1-0.2,0.5-0.5,1.8-0.5c1.2,0,1.7,0.3,1.8,0.5c0.2,0.2,0.4,0.9,0.4,2.6c0,1.7-0.2,2.3-0.4,2.6c-0.2,0.2-0.6,0.5-1.8,0.5
		c-1.2,0-1.7-0.2-1.8-0.5c-0.2-0.2-0.4-0.9-0.4-2.6C16.4,10,16.6,9.3,16.8,9.1"/>
	<path fill="#FFFFFF" d="M31,15.4c0.4-0.4,0.6-1.1,0.6-2c0-0.9-0.2-1.6-0.6-2c-0.4-0.4-1.1-0.6-2.1-0.6l-2.4,0V8.7l4.4,0l0-1.4
		l-5.9,0l0,8.7l3.9,0C29.9,16,30.6,15.8,31,15.4 M28.8,12.2c0.8,0,1,0.1,1.1,0.2c0.1,0.1,0.2,0.4,0.2,1c0,0.6-0.1,0.9-0.2,1
		c-0.1,0.1-0.3,0.2-1,0.2l-2.4,0v-2.5L28.8,12.2z"/>
	<polygon fill="#FFFFFF" points="34.5,11.1 35.8,11.1 36,7.3 34.4,7.3 	"/>
	<path fill="#FFFFFF" d="M42.1,16.1c1.4,0,2.3-0.2,2.8-0.6c0.5-0.4,0.7-1.1,0.7-2.2l0-0.3l-1.5,0l0,0.3c0,0.8-0.2,1.1-0.3,1.2
		c-0.1,0.1-0.5,0.3-1.7,0.3c-1.1,0-1.5-0.2-1.7-0.4c-0.1-0.2-0.3-0.6-0.3-2.1l4.1,0v-1.4l-4.1,0c0-1.2,0.2-1.6,0.4-1.8
		c0.3-0.3,0.8-0.5,1.7-0.5c1,0,1.4,0.2,1.5,0.3C43.8,9,43.9,9.2,44,10l0,0.2h1.4l0-0.3c0-1.1-0.3-1.8-0.8-2.2
		c-0.5-0.4-1.3-0.6-2.6-0.6c-1.4,0-2.3,0.3-2.8,0.9c-0.5,0.6-0.7,1.8-0.7,3.6c0,1.8,0.2,2.9,0.7,3.5C39.8,15.8,40.7,16.1,42.1,16.1"
		/>
	<path fill="#FFFFFF" d="M55.3,7.3l-6.1,0l0,4.5c0,0.6-0.1,1.2-0.2,1.6c-0.1,0.4-0.3,0.8-0.5,1.2l-0.6,0l0,3.2l1.4,0l0-1.9l5.2,0
		l0,1.9h1.4l0-3.2h-0.6L55.3,7.3z M53.9,8.7l0,5.9l-3.6,0c0.2-0.3,0.3-0.7,0.4-1c0.1-0.5,0.2-1.1,0.2-2l0-3L53.9,8.7z"/>
	<polygon fill="#FFFFFF" points="60,12.2 64.2,12.2 64.2,16 65.6,16 65.6,7.3 64.1,7.3 64.2,10.9 60,10.9 60,7.3 58.5,7.3 58.5,16 
		60,16 	"/>
	<path fill="#FFFFFF" d="M71.3,7.3L68.1,16l1.6,0l0.6-1.7l3.7,0l0.6,1.7l1.6,0L73,7.3L71.3,7.3z M70.8,12.9l1.4-3.8l1.4,3.8
		L70.8,12.9z"/>
	<polygon fill="#FFFFFF" points="80.1,12.2 84.3,12.2 84.3,15.9 85.7,15.9 85.7,7.3 84.3,7.3 84.3,10.9 80.1,10.9 80.1,7.3 
		78.6,7.3 78.7,15.9 80.1,15.9 	"/>
	<polygon fill="#FFFFFF" points="94.5,10.8 90.3,10.9 90.3,7.3 88.9,7.3 88.9,15.9 90.3,15.9 90.3,12.2 94.5,12.2 94.5,15.9 
		95.9,15.9 95.9,7.3 94.5,7.3 	"/>
	<path fill="#FFFFFF" d="M100.3,15.9l1.8-3.2h2.1l0,3.2l1.5,0l0-8.6l-3.9,0c-0.9,0-1.6,0.2-2.1,0.6c-0.5,0.4-0.7,1.1-0.7,2
		c0,0.7,0.2,1.4,0.6,1.8c0.3,0.3,0.6,0.6,1.1,0.7l-2,3.4L100.3,15.9z M101.5,8.6l2.6,0l0,2.7l-2.2,0c-1.5,0-1.6-0.7-1.6-1.2
		c0-0.5,0.1-0.9,0.3-1.1C100.8,8.7,101.1,8.6,101.5,8.6"/>
	<path fill="#FFFFFF" d="M26.2,34.7c0,1.4-0.2,2.4-0.7,2.8c-0.3,0.3-1.2,0.7-3.4,0.7c-1.7,0-2.8-0.3-3.3-1c-0.4-0.5-0.8-1.8-0.8-5.1
		c0-3.3,0.4-4.6,0.8-5.1c0.5-0.7,1.6-1.1,3.3-1.1c2.2,0,3,0.4,3.2,0.6c0.2,0.2,0.5,0.8,0.7,2.6l0,0.5l2.8,0V29
		c0-2.1-0.5-3.6-1.4-4.5c-1-1-2.8-1.4-5.5-1.4c-2.7,0-4.6,0.6-5.6,1.8c-1,1.3-1.5,3.6-1.5,7.1c0,3.6,0.5,5.9,1.6,7.1
		c1,1.2,2.8,1.7,5.5,1.7c2.7,0,4.5-0.4,5.5-1.4c1-0.9,1.5-2.5,1.5-4.8l0-0.6l-2.9,0V34.7z"/>
	<path fill="#FFFFFF" d="M38.9,23.2l-6.3,17.5l3.2,0l1.3-3.4l7.4,0l1.2,3.4l3.1,0l-6.5-17.5L38.9,23.2z M37.8,34.6l2.8-7.8l2.8,7.8
		L37.8,34.6z"/>
	<polygon fill="#FFFFFF" points="62.7,36.3 57.3,23.2 53.3,23.2 53.4,40.7 56.3,40.7 56.3,28.1 61.5,40.7 63.9,40.7 69.1,28 
		69.1,40.7 72,40.7 72,23.2 68.1,23.2 	"/>
	<path fill="#FFFFFF" d="M84.8,23c-3,0-5,0.6-6,1.8c-1,1.2-1.5,3.5-1.5,7.1c0,3.6,0.5,5.9,1.5,7.1c1,1.2,3,1.8,5.9,1.8
		c3,0,4.9-0.6,5.9-1.8c1-1.2,1.5-3.5,1.5-7.1c0-3.6-0.5-5.9-1.5-7.1C89.7,23.6,87.7,23,84.8,23 M88.5,37.1c-0.3,0.4-1.2,1-3.7,1
		c-2.5,0-3.4-0.5-3.7-0.9c-0.3-0.5-0.8-1.8-0.8-5.2c0-3.5,0.4-4.8,0.7-5.3c0.2-0.3,1-0.9,3.7-0.9c2.5,0,3.4,0.5,3.7,0.9
		c0.3,0.5,0.7,1.8,0.7,5.2C89.2,35.4,88.8,36.7,88.5,37.1"/>
	<polygon fill="#FFFFFF" points="97.2,40.6 100.2,40.6 100.2,26 108.5,26 108.6,40.6 111.5,40.6 111.5,23.2 97.2,23.2 	"/>
	<path fill="#FFFFFF" d="M124.1,23c-3,0-5,0.6-6,1.8c-1,1.2-1.5,3.5-1.5,7.1c0,3.6,0.5,5.9,1.5,7.1c1,1.2,3,1.8,5.9,1.8
		c3,0,4.9-0.6,5.9-1.8c1-1.2,1.5-3.5,1.5-7.1c0-3.6-0.5-5.9-1.5-7.1C129,23.6,127.1,23,124.1,23 M127.8,37.1c-0.3,0.4-1.2,1-3.7,1
		c-2.5,0-3.4-0.5-3.7-0.9c-0.3-0.5-0.8-1.8-0.8-5.2c0-3.5,0.4-4.8,0.7-5.3c0.3-0.3,1.1-0.9,3.7-0.9c2.5,0,3.4,0.5,3.7,0.9
		c0.3,0.5,0.7,1.8,0.8,5.2C128.5,35.3,128.1,36.6,127.8,37.1"/>
	<polygon fill="#FFFFFF" points="146,36.2 140.6,23.1 136.6,23.1 136.7,40.6 139.6,40.6 139.6,28 144.9,40.6 147.2,40.6 152.4,27.9 
		152.4,40.6 155.3,40.6 155.3,23.1 151.4,23.1 	"/>
	<polygon fill="#FFFFFF" points="161.1,40.6 164.1,40.5 164,23.1 161.1,23.1 	"/>
	<path fill="#FFFFFF" d="M179.7,23.1l0,7.3c-0.4,0.1-0.7,0.1-1.2,0.1c-0.6,0-1.4,0.1-2.2,0.1l-0.5,0c-2,0-2.6-0.2-2.9-0.4
		c-0.6-0.4-0.7-1.5-0.7-2.3l0-4.7l-2.9,0l0,4.4c0,2.3,0.4,3.8,1.3,4.6c0.9,0.8,2.4,1.2,4.8,1.2c0.7,0,1.6,0,2.5,0
		c0.7,0,1.3-0.1,1.9-0.2l0,7.5l2.9,0l0-17.5L179.7,23.1z"/>
	<g opacity="0.5">
		<g>
			<path fill="#232221" d="M150.7,63.7h-1.3v6h-1.8V56.9h1.8v5.4h1.3l3.8-5.4h1.9l-4.2,6l4.6,6.8h-2.1L150.7,63.7z"/>
		</g>
		<g>
			<path fill="#232221" d="M166.4,59.9v9.8h-1.7v-4.4c0-0.4,0-0.8,0-1.2c0-0.4,0-0.7,0.1-1.1c0-0.3,0-0.6,0.1-0.8c0-0.2,0-0.3,0-0.4
				h-0.1l-4.1,7.9h-2.1v-9.8h1.7v4.4c0,0.4,0,0.8,0,1.1c0,0.4,0,0.7-0.1,1c0,0.3,0,0.6-0.1,0.8c0,0.2,0,0.4,0,0.4h0.1l4-7.8H166.4z"
				/>
		</g>
		<g>
			<path fill="#232221" d="M168.9,57.6c-0.3,0-0.6-0.1-0.8-0.3c-0.2-0.2-0.3-0.4-0.3-0.7c0-0.3,0.1-0.6,0.3-0.8
				c0.2-0.2,0.5-0.3,0.8-0.3c0.3,0,0.5,0.1,0.8,0.3c0.2,0.2,0.3,0.5,0.3,0.8c0,0.3-0.1,0.5-0.3,0.7
				C169.4,57.5,169.2,57.6,168.9,57.6z M170,69.7v-9.8h1.7v9.8H170z M172.8,57.6c-0.3,0-0.6-0.1-0.8-0.3c-0.2-0.2-0.3-0.4-0.3-0.7
				c0-0.3,0.1-0.6,0.3-0.8c0.2-0.2,0.5-0.3,0.8-0.3c0.3,0,0.6,0.1,0.8,0.3c0.2,0.2,0.3,0.5,0.3,0.8c0,0.3-0.1,0.5-0.3,0.7
				C173.4,57.5,173.1,57.6,172.8,57.6z"/>
		</g>
		<g>
			<path fill="#232221" d="M183,66.8c0,0.6-0.1,1-0.3,1.4c-0.2,0.4-0.5,0.7-0.9,0.9c-0.4,0.2-0.8,0.4-1.3,0.5
				c-0.5,0.1-1,0.1-1.5,0.1h-3.6V60c0.5-0.1,1-0.2,1.6-0.3c0.5-0.1,1.1-0.1,1.7-0.1c0.5,0,1,0,1.5,0.1c0.5,0.1,0.9,0.2,1.3,0.4
				c0.4,0.2,0.7,0.5,0.9,0.8c0.2,0.3,0.3,0.8,0.3,1.3c0,0.6-0.2,1-0.5,1.3c-0.3,0.3-0.7,0.5-1.2,0.7v0.1c0.3,0,0.6,0.1,0.8,0.3
				c0.3,0.1,0.5,0.3,0.7,0.5c0.2,0.2,0.4,0.4,0.5,0.7C182.9,66.1,183,66.4,183,66.8z M180.7,62.4c0-0.5-0.2-0.9-0.6-1.1
				c-0.4-0.2-0.9-0.3-1.6-0.3c-0.3,0-0.6,0-0.8,0c-0.2,0-0.5,0-0.7,0.1v2.7h1.9c0.6,0,1.1-0.1,1.4-0.3
				C180.6,63.3,180.7,62.9,180.7,62.4z M181.2,66.7c0-0.5-0.2-1-0.5-1.2c-0.3-0.3-0.9-0.4-1.7-0.4h-2v3.3h1.9c0.8,0,1.4-0.1,1.7-0.4
				C181,67.7,181.2,67.3,181.2,66.7z"/>
		</g>
	</g>
</g>
</svg>
